<svg width="108" height="24" viewBox="0 0 108 24" fill="none" xmlns="http://www.w3.org/2000/svg">
<path d="M30.7191 20.2458C31.4368 20.6177 32.0415 20.4982 32.5332 19.8872C33.0249 19.2762 33.0847 18.6386 32.7126 17.9744L29.8819 12.6347L27.7289 18.4925L30.7191 20.2458ZM22.2669 18.5722H25.0769L28.925 8.92882C29.0845 8.5569 29.1443 8.19162 29.1044 7.83298C29.0646 7.47435 28.8453 7.20205 28.4466 7.01609L25.1375 5.58154C24.7653 5.39558 24.3932 5.39558 24.0211 5.58154C23.649 5.7675 23.4497 6.04644 23.4231 6.41836L22.2669 18.5722ZM10.4561 18.5722H13.2166L12.1003 6.41836C12.0737 6.01987 11.8943 5.72765 11.562 5.54169C11.2298 5.35573 10.8377 5.36901 10.3859 5.58154L7.23624 6.93639C6.89071 7.06922 6.69801 7.36808 6.65814 7.83298C6.61827 8.29788 6.66478 8.71629 6.79768 9.08821L10.4561 18.5722ZM4.80422 20.2458L7.79441 18.4925L5.64148 12.6347L2.81077 18.1737C2.43866 18.9175 2.5184 19.5219 3.04998 19.9868C3.58157 20.4517 4.16632 20.538 4.80422 20.2458ZM15.6087 18.5722H19.8747L21.1904 4.06729C21.2436 3.69537 21.1439 3.38323 20.8914 3.13085C20.6389 2.87848 20.3266 2.75229 19.9545 2.75229H15.5689C15.1436 2.75229 14.8247 2.87848 14.612 3.13085C14.3994 3.38323 14.3064 3.69537 14.3329 4.06729L15.6087 18.5722ZM3.9271 22.8957C2.82698 22.8957 1.89737 22.5032 1.13826 21.7182C0.379421 20.9329 0 19.9905 0 18.891C0 18.553 0.0598036 18.2234 0.179411 17.9019C0.299018 17.5807 0.431649 17.2645 0.577304 16.9531L4.21655 9.90591C3.81786 8.82548 3.79235 7.75634 4.14001 6.6985C4.4874 5.64091 5.16185 4.89322 6.16336 4.45542L9.4725 3.10057C9.89777 2.94117 10.3297 2.8466 10.7682 2.81685C11.2068 2.78709 11.6153 2.88857 11.9938 3.12129C12.1809 2.25206 12.6062 1.53824 13.2696 0.979829C13.9328 0.421418 14.6992 0.142212 15.5689 0.142212H19.9545C20.8242 0.142212 21.5906 0.401494 22.2537 0.920056C22.9171 1.43862 23.3424 2.11923 23.5295 2.9619C23.9282 2.80888 24.3418 2.74724 24.7703 2.777C25.1987 2.80675 25.6123 2.91461 26.011 3.10057L29.36 4.45542C30.3817 4.84647 31.0745 5.56255 31.4384 6.60366C31.8025 7.64503 31.765 8.66608 31.3259 9.66681L34.9461 16.9133C35.0587 17.2182 35.1831 17.5198 35.3192 17.8178C35.4553 18.1156 35.5234 18.4202 35.5234 18.7316C35.5234 19.9044 35.1041 20.8918 34.2655 21.6935C33.4266 22.495 32.4173 22.8957 31.2374 22.8957C30.9323 22.8957 30.6439 22.8344 30.3723 22.7116C30.1009 22.5889 29.8259 22.4712 29.5474 22.3586L27.1536 21.1822H8.32985L6.06528 22.3586C5.72719 22.4978 5.38259 22.6221 5.03148 22.7316C4.6801 22.841 4.31197 22.8957 3.9271 22.8957Z" fill="#080C0C"/>
<path d="M107.321 20.3758C107.162 20.3758 107.029 20.3227 106.923 20.2165C106.817 20.1028 106.764 19.9624 106.764 19.7956V18.2939H105.16V18.146C104.758 18.146 104.401 18.0663 104.09 17.907C103.779 17.7478 103.537 17.5278 103.362 17.2472C103.188 16.9666 103.101 16.6404 103.101 16.2688C103.101 15.8668 103.195 15.5065 103.385 15.188C103.582 14.8694 103.848 14.6192 104.181 14.4371C104.523 14.2475 104.913 14.1527 105.353 14.1527H107.321C107.496 14.1527 107.636 14.2058 107.742 14.312C107.848 14.4182 107.902 14.5585 107.902 14.7329V19.807C107.894 19.9738 107.837 20.1103 107.731 20.2165C107.632 20.3227 107.496 20.3758 107.321 20.3758ZM103.283 20.2393C103.161 20.1331 103.104 20.0155 103.112 19.8866C103.12 19.7577 103.165 19.6401 103.248 19.5339L104.636 17.725H106.15L104.204 20.1483C104.075 20.3151 103.916 20.3948 103.726 20.3872C103.537 20.3796 103.389 20.3303 103.283 20.2393ZM105.353 17.3382H106.764V15.2335H105.353C105.05 15.2335 104.784 15.3321 104.557 15.5293C104.329 15.7189 104.216 15.9654 104.216 16.2688C104.216 16.5873 104.329 16.8452 104.557 17.0424C104.784 17.2396 105.05 17.3382 105.353 17.3382Z" fill="#080C0C"/>
<path d="M100.889 20.3758C100.722 20.3758 100.581 20.3227 100.468 20.2165C100.361 20.1028 100.308 19.9624 100.308 19.7956V14.7329C100.308 14.5585 100.361 14.4182 100.468 14.312C100.581 14.2058 100.722 14.1527 100.889 14.1527C101.063 14.1527 101.2 14.2058 101.298 14.312C101.397 14.4182 101.446 14.5585 101.446 14.7329V19.7956C101.446 19.9624 101.397 20.1028 101.298 20.2165C101.2 20.3227 101.063 20.3758 100.889 20.3758ZM96.2127 20.3758C96.0459 20.3758 95.9094 20.3227 95.8032 20.2165C95.7046 20.1028 95.6553 19.9624 95.6553 19.7956V14.7329C95.6553 14.5585 95.7046 14.4182 95.8032 14.312C95.9094 14.2058 96.0459 14.1527 96.2127 14.1527C96.3872 14.1527 96.5275 14.2058 96.6337 14.312C96.7399 14.4182 96.7929 14.5585 96.7929 14.7329V19.7956C96.7929 19.9624 96.7399 20.1028 96.6337 20.2165C96.5275 20.3227 96.3872 20.3758 96.2127 20.3758ZM96.6451 17.6568V16.6328H100.638V17.6568H96.6451Z" fill="#080C0C"/>
<path d="M88.3507 23.0379C88.1839 23.0379 88.0435 22.9811 87.9298 22.8673C87.8236 22.7611 87.7705 22.6246 87.7705 22.4577V17.2699C87.7781 16.6707 87.9184 16.1322 88.1914 15.6544C88.4645 15.1766 88.8361 14.8012 89.3064 14.5281C89.7766 14.2475 90.3075 14.1072 90.8991 14.1072C91.4983 14.1072 92.033 14.2475 92.5032 14.5281C92.9735 14.8012 93.3451 15.1766 93.6182 15.6544C93.8988 16.1322 94.0391 16.6707 94.0391 17.2699C94.0391 17.8691 93.9102 18.4076 93.6523 18.8854C93.402 19.3557 93.0569 19.7311 92.617 20.0117C92.1771 20.2848 91.6803 20.4213 91.1267 20.4213C90.6792 20.4213 90.2658 20.3303 89.8866 20.1482C89.5149 19.9586 89.1964 19.7045 88.9309 19.386V22.4577C88.9309 22.6246 88.8778 22.7611 88.7717 22.8673C88.6655 22.9811 88.5252 23.0379 88.3507 23.0379ZM90.8991 19.3974C91.2859 19.3974 91.631 19.3064 91.9344 19.1243C92.2378 18.9347 92.4767 18.6806 92.6511 18.3621C92.8332 18.036 92.9242 17.6719 92.9242 17.2699C92.9242 16.8604 92.8332 16.4963 92.6511 16.1777C92.4767 15.8516 92.2378 15.5975 91.9344 15.4155C91.631 15.2259 91.2859 15.1311 90.8991 15.1311C90.5199 15.1311 90.1748 15.2259 89.8638 15.4155C89.5604 15.5975 89.3215 15.8516 89.1471 16.1777C88.9727 16.4963 88.8854 16.8604 88.8854 17.2699C88.8854 17.6719 88.9727 18.036 89.1471 18.3621C89.3215 18.6806 89.5604 18.9347 89.8638 19.1243C90.1748 19.3064 90.5199 19.3974 90.8991 19.3974Z" fill="#080C0C"/>
<path d="M83.7434 20.4213C83.1138 20.4213 82.5526 20.2886 82.0596 20.0231C81.5742 19.7501 81.1912 19.3784 80.9105 18.9082C80.6375 18.4303 80.501 17.8843 80.501 17.2699C80.501 16.648 80.6299 16.1019 80.8878 15.6317C81.1532 15.1538 81.5173 14.7822 81.98 14.5167C82.4426 14.2437 82.9735 14.1072 83.5727 14.1072C84.1643 14.1072 84.6725 14.2399 85.0972 14.5054C85.5219 14.7632 85.8443 15.1235 86.0642 15.5862C86.2917 16.0412 86.4055 16.5684 86.4055 17.1675C86.4055 17.3116 86.3562 17.433 86.2576 17.5316C86.159 17.6226 86.0339 17.6681 85.8822 17.6681H81.2974V16.758H85.8481L85.3816 17.0765C85.374 16.6973 85.2982 16.3598 85.1541 16.064C85.01 15.7606 84.8052 15.5217 84.5397 15.3472C84.2743 15.1728 83.9519 15.0856 83.5727 15.0856C83.1404 15.0856 82.7687 15.1804 82.4578 15.37C82.1544 15.5596 81.9231 15.8213 81.7638 16.155C81.6045 16.4811 81.5249 16.8528 81.5249 17.2699C81.5249 17.6871 81.6197 18.0587 81.8093 18.3848C81.9989 18.711 82.2606 18.9688 82.5943 19.1585C82.928 19.3481 83.311 19.4429 83.7434 19.4429C83.9785 19.4429 84.2174 19.4012 84.4601 19.3177C84.7104 19.2267 84.9114 19.1243 85.0631 19.0106C85.1768 18.9271 85.2982 18.8854 85.4271 18.8854C85.5636 18.8778 85.6812 18.9158 85.7798 18.9992C85.9087 19.113 85.977 19.2381 85.9846 19.3746C85.9922 19.5111 85.9315 19.6287 85.8025 19.7273C85.5447 19.9321 85.2223 20.0989 84.8355 20.2279C84.4563 20.3568 84.0922 20.4213 83.7434 20.4213Z" fill="#080C0C"/>
<path d="M78.4244 20.3872C78.2575 20.3872 78.1172 20.3341 78.0034 20.2279C77.8973 20.1141 77.8442 19.9738 77.8442 19.807V16.5532C77.8442 16.0754 77.7266 15.7227 77.4915 15.4952C77.2564 15.26 76.9492 15.1425 76.57 15.1425C76.1756 15.1425 75.8494 15.279 75.5916 15.5521C75.3413 15.8251 75.2161 16.174 75.2161 16.5987H74.2719C74.2719 16.1057 74.378 15.6734 74.5904 15.3018C74.8028 14.9225 75.0986 14.6267 75.4778 14.4144C75.8646 14.202 76.3045 14.0958 76.7975 14.0958C77.2298 14.0958 77.6128 14.1906 77.9465 14.3802C78.2803 14.5699 78.5381 14.8505 78.7202 15.2221C78.9098 15.5862 79.0046 16.0299 79.0046 16.5532V19.807C79.0046 19.9738 78.9515 20.1141 78.8453 20.2279C78.7391 20.3341 78.5988 20.3872 78.4244 20.3872ZM70.8361 20.3872C70.6692 20.3872 70.5289 20.3341 70.4151 20.2279C70.3089 20.1141 70.2559 19.9738 70.2559 19.807V14.7443C70.2559 14.5699 70.3089 14.4295 70.4151 14.3234C70.5289 14.2172 70.6692 14.1641 70.8361 14.1641C71.0105 14.1641 71.1508 14.2172 71.257 14.3234C71.3632 14.4295 71.4163 14.5699 71.4163 14.7443V19.807C71.4163 19.9738 71.3632 20.1141 71.257 20.2279C71.1508 20.3341 71.0105 20.3872 70.8361 20.3872ZM74.6359 20.3872C74.4691 20.3872 74.3287 20.3341 74.215 20.2279C74.1088 20.1141 74.0557 19.9738 74.0557 19.807V16.5532C74.0557 16.0754 73.9381 15.7227 73.703 15.4952C73.4679 15.26 73.1607 15.1425 72.7815 15.1425C72.3871 15.1425 72.061 15.279 71.8031 15.5521C71.5452 15.8251 71.4163 16.174 71.4163 16.5987H70.6996C70.6996 16.1057 70.7982 15.6734 70.9953 15.3018C71.1925 14.9225 71.4656 14.6267 71.8145 14.4144C72.1634 14.202 72.5615 14.0958 73.009 14.0958C73.4414 14.0958 73.8244 14.1906 74.1581 14.3802C74.4918 14.5699 74.7497 14.8505 74.9317 15.2221C75.1213 15.5862 75.2161 16.0299 75.2161 16.5532V19.807C75.2161 19.9738 75.163 20.1141 75.0569 20.2279C74.9507 20.3341 74.8104 20.3872 74.6359 20.3872Z" fill="#080C0C"/>
<path d="M66.3578 20.4213C65.751 20.4213 65.2087 20.2848 64.7309 20.0117C64.2606 19.7311 63.889 19.3557 63.616 18.8854C63.3505 18.4076 63.2178 17.8691 63.2178 17.2699C63.2178 16.6556 63.3505 16.1095 63.616 15.6317C63.8814 15.1538 64.2455 14.7822 64.7081 14.5167C65.1708 14.2437 65.7017 14.1072 66.3009 14.1072C66.7484 14.1072 67.1579 14.1944 67.5296 14.3688C67.9012 14.5357 68.2349 14.7898 68.5307 15.1311C68.6369 15.2524 68.6748 15.3776 68.6445 15.5065C68.6141 15.6355 68.5307 15.7492 68.3942 15.8478C68.288 15.9237 68.1705 15.9502 68.0415 15.9275C67.9126 15.8971 67.795 15.8289 67.6888 15.7227C67.3172 15.3283 66.8545 15.1311 66.3009 15.1311C65.9141 15.1311 65.5728 15.2221 65.277 15.4041C64.9812 15.5786 64.7498 15.8251 64.583 16.1436C64.4161 16.4622 64.3327 16.8376 64.3327 17.2699C64.3327 17.6795 64.4161 18.0435 64.583 18.3621C64.7574 18.6806 64.9963 18.9347 65.2997 19.1243C65.6031 19.3064 65.9558 19.3974 66.3578 19.3974C66.6232 19.3974 66.8545 19.367 67.0517 19.3064C67.2565 19.2381 67.4423 19.1357 67.6092 18.9992C67.7306 18.9006 67.8557 18.8475 67.9846 18.8399C68.1136 18.8247 68.2273 18.8589 68.3259 18.9423C68.4549 19.0485 68.5269 19.1698 68.5421 19.3064C68.5573 19.4353 68.5118 19.5529 68.4056 19.659C67.8595 20.1672 67.1769 20.4213 66.3578 20.4213Z" fill="#080C0C"/>
<path d="M58.5123 20.4326C57.989 20.4326 57.5187 20.3227 57.1016 20.1027C56.692 19.8752 56.3659 19.5452 56.1232 19.1129C55.8881 18.6806 55.7705 18.1497 55.7705 17.5202V14.7215C55.7705 14.5546 55.8236 14.4181 55.9298 14.3119C56.0435 14.1982 56.1839 14.1413 56.3507 14.1413C56.5176 14.1413 56.6541 14.1982 56.7603 14.3119C56.8741 14.4181 56.9309 14.5546 56.9309 14.7215V17.5202C56.9309 17.9449 57.0106 18.2976 57.1698 18.5782C57.3291 18.8513 57.5453 19.056 57.8183 19.1926C58.0914 19.3215 58.3985 19.386 58.7398 19.386C59.066 19.386 59.3542 19.3215 59.6045 19.1926C59.8623 19.0636 60.0671 18.8892 60.2188 18.6692C60.3705 18.4493 60.4464 18.2028 60.4464 17.9297H61.1631C61.1631 18.4 61.0455 18.8247 60.8104 19.2039C60.5829 19.5832 60.2681 19.8828 59.8661 20.1027C59.4717 20.3227 59.0205 20.4326 58.5123 20.4326ZM61.0266 20.3758C60.8597 20.3758 60.7194 20.3227 60.6056 20.2165C60.4994 20.1027 60.4464 19.9624 60.4464 19.7955V14.7215C60.4464 14.5471 60.4994 14.4067 60.6056 14.3006C60.7194 14.1944 60.8597 14.1413 61.0266 14.1413C61.201 14.1413 61.3413 14.1944 61.4475 14.3006C61.5537 14.4067 61.6068 14.5471 61.6068 14.7215V19.7955C61.6068 19.9624 61.5537 20.1027 61.4475 20.2165C61.3413 20.3227 61.201 20.3758 61.0266 20.3758ZM58.7512 13.3335C58.3644 13.3335 58.0155 13.2691 57.7046 13.1401C57.3936 13.0036 57.1471 12.8216 56.9651 12.594C56.783 12.3589 56.692 12.0973 56.692 11.809C56.692 11.6498 56.7413 11.517 56.8399 11.4109C56.9385 11.3047 57.0599 11.2516 57.204 11.2516C57.3557 11.2516 57.477 11.3047 57.568 11.4109C57.6666 11.517 57.7159 11.6498 57.7159 11.809C57.7159 11.9987 57.8145 12.1617 58.0117 12.2982C58.2089 12.4272 58.4554 12.4917 58.7512 12.4917C59.047 12.4917 59.2935 12.4272 59.4907 12.2982C59.6879 12.1617 59.7865 11.9987 59.7865 11.809C59.7865 11.6498 59.8358 11.517 59.9344 11.4109C60.033 11.3047 60.1544 11.2516 60.2985 11.2516C60.4501 11.2516 60.5715 11.3047 60.6625 11.4109C60.7611 11.517 60.8104 11.6498 60.8104 11.809C60.8104 12.0973 60.7194 12.3589 60.5374 12.594C60.3553 12.8216 60.1088 13.0036 59.7979 13.1401C59.4945 13.2691 59.1456 13.3335 58.7512 13.3335Z" fill="#080C0C"/>
<path d="M50.9251 20.4213C50.3715 20.4213 49.8747 20.2848 49.4348 20.0117C48.9949 19.7311 48.646 19.3557 48.3881 18.8854C48.1378 18.4076 48.0127 17.8691 48.0127 17.2699C48.0127 16.6707 48.1492 16.1322 48.4223 15.6544C48.7029 15.1766 49.0783 14.8012 49.5486 14.5281C50.0264 14.2475 50.5611 14.1072 51.1527 14.1072C51.7443 14.1072 52.2752 14.2475 52.7454 14.5281C53.2157 14.8012 53.5873 15.1766 53.8604 15.6544C54.141 16.1322 54.2813 16.6707 54.2813 17.2699H53.8376C53.8376 17.8691 53.7087 18.4076 53.4508 18.8854C53.2005 19.3557 52.8554 19.7311 52.4155 20.0117C51.9756 20.2848 51.4788 20.4213 50.9251 20.4213ZM51.1527 19.3974C51.5395 19.3974 51.8846 19.3064 52.188 19.1243C52.4913 18.9347 52.7303 18.6806 52.9047 18.3621C53.0791 18.036 53.1664 17.6719 53.1664 17.2699C53.1664 16.8604 53.0791 16.4963 52.9047 16.1777C52.7303 15.8516 52.4913 15.5975 52.188 15.4155C51.8846 15.2259 51.5395 15.1311 51.1527 15.1311C50.7735 15.1311 50.4284 15.2259 50.1174 15.4155C49.814 15.5975 49.5713 15.8516 49.3893 16.1777C49.2148 16.4963 49.1276 16.8604 49.1276 17.2699C49.1276 17.6719 49.2148 18.036 49.3893 18.3621C49.5713 18.6806 49.814 18.9347 50.1174 19.1243C50.4284 19.3064 50.7735 19.3974 51.1527 19.3974ZM53.7011 20.3872C53.5342 20.3872 53.3939 20.3341 53.2801 20.2279C53.174 20.1141 53.1209 19.9738 53.1209 19.8069V18.0663L53.337 16.8604L54.2813 17.2699V19.8069C54.2813 19.9738 54.2244 20.1141 54.1106 20.2279C54.0045 20.3341 53.8679 20.3872 53.7011 20.3872Z" fill="#080C0C"/>
<path d="M39.882 20.3758C39.7151 20.3758 39.5748 20.3227 39.461 20.2165C39.3548 20.1028 39.3018 19.9624 39.3018 19.7956V14.7329C39.3018 14.5585 39.3548 14.4182 39.461 14.312C39.5748 14.2058 39.7151 14.1527 39.882 14.1527C40.1247 14.1527 40.3295 14.2703 40.4963 14.5054L42.8513 17.907L45.2063 14.5054C45.3732 14.2703 45.5779 14.1527 45.8206 14.1527C45.9951 14.1527 46.1354 14.2058 46.2416 14.312C46.3478 14.4182 46.4009 14.5585 46.4009 14.7329V19.7956C46.4009 19.9624 46.3478 20.1028 46.2416 20.2165C46.1354 20.3227 45.9951 20.3758 45.8206 20.3758C45.6538 20.3758 45.5135 20.3227 45.3997 20.2165C45.2935 20.1028 45.2404 19.9624 45.2404 19.7956V15.6544L45.5362 15.7455L43.4429 18.7034C43.2533 18.9689 43.0485 19.1016 42.8286 19.1016C42.6086 19.094 42.4076 18.9613 42.2256 18.7034L40.1664 15.7455L40.4622 15.6544V19.7956C40.4622 19.9624 40.4091 20.1028 40.3029 20.2165C40.1967 20.3227 40.0564 20.3758 39.882 20.3758Z" fill="#080C0C"/>
<path d="M85.3988 9.04457C84.8451 9.04457 84.3483 8.90805 83.9084 8.63501C83.4685 8.35438 83.1196 7.97895 82.8618 7.50871C82.6115 7.03089 82.4863 6.49238 82.4863 5.89321C82.4863 5.29403 82.6229 4.75553 82.8959 4.27771C83.1765 3.79988 83.552 3.42445 84.0222 3.15141C84.5 2.87078 85.0347 2.73047 85.6263 2.73047C86.2179 2.73047 86.7488 2.87078 87.2191 3.15141C87.6893 3.42445 88.0609 3.79988 88.334 4.27771C88.6146 4.75553 88.7549 5.29403 88.7549 5.89321H88.3112C88.3112 6.49238 88.1823 7.03089 87.9244 7.50871C87.6741 7.97895 87.329 8.35438 86.8891 8.63501C86.4492 8.90805 85.9524 9.04457 85.3988 9.04457ZM85.6263 8.02066C86.0131 8.02066 86.3582 7.92965 86.6616 7.74762C86.965 7.55801 87.2039 7.30393 87.3783 6.98538C87.5528 6.65924 87.64 6.29519 87.64 5.89321C87.64 5.48364 87.5528 5.11959 87.3783 4.80104C87.2039 4.47491 86.965 4.22082 86.6616 4.0388C86.3582 3.84918 86.0131 3.75438 85.6263 3.75438C85.2471 3.75438 84.902 3.84918 84.591 4.0388C84.2876 4.22082 84.0449 4.47491 83.8629 4.80104C83.6885 5.11959 83.6013 5.48364 83.6013 5.89321C83.6013 6.29519 83.6885 6.65924 83.8629 6.98538C84.0449 7.30393 84.2876 7.55801 84.591 7.74762C84.902 7.92965 85.2471 8.02066 85.6263 8.02066ZM88.1747 9.01044C88.0078 9.01044 87.8675 8.95735 87.7538 8.85117C87.6476 8.7374 87.5945 8.59709 87.5945 8.43023V6.68958L87.8107 5.48364L88.7549 5.89321V8.43023C88.7549 8.59709 88.698 8.7374 88.5843 8.85117C88.4781 8.95735 88.3416 9.01044 88.1747 9.01044Z" fill="#080C0C"/>
<path d="M81.8814 8.86252C81.7828 8.95354 81.6424 8.99904 81.4604 8.99904C81.286 8.99146 81.1495 8.93837 81.0509 8.83977L78.2863 5.87043L80.8916 2.95798C80.9902 2.8518 81.1267 2.79112 81.3011 2.77596C81.4832 2.76079 81.6235 2.79871 81.7221 2.88972C81.8359 2.99591 81.9003 3.11726 81.9155 3.25378C81.9307 3.38272 81.8889 3.50028 81.7903 3.60646L79.7312 5.81355L81.9155 8.15716C82.0141 8.25576 82.0634 8.37332 82.0634 8.50984C82.0634 8.63878 82.0027 8.75634 81.8814 8.86252ZM77.3762 9.01042C77.2093 9.01042 77.0766 8.95733 76.978 8.85115C76.8794 8.73738 76.8301 8.59706 76.8301 8.43021V3.35617C76.8301 3.18173 76.8794 3.04141 76.978 2.93523C77.0766 2.82905 77.2093 2.77596 77.3762 2.77596C77.5506 2.77596 77.6909 2.82905 77.7971 2.93523C77.9109 3.04141 77.9678 3.18173 77.9678 3.35617V5.25609H79.424V6.32551H77.9678V8.43021C77.9678 8.59706 77.9109 8.73738 77.7971 8.85115C77.6909 8.95733 77.5506 9.01042 77.3762 9.01042Z" fill="#080C0C"/>
<path d="M71.8597 9.04457C71.2909 9.04457 70.7865 8.91184 70.3466 8.64638C69.9143 8.37334 69.573 8.0017 69.3227 7.53146C69.0724 7.05364 68.9473 6.50755 68.9473 5.89321C68.9473 5.27128 69.08 4.72519 69.3455 4.25495C69.6185 3.77713 69.9901 3.40549 70.4604 3.14003C70.9306 2.86699 71.4729 2.73047 72.0873 2.73047C72.694 2.73047 73.2325 2.86699 73.7028 3.14003C74.173 3.40549 74.5408 3.77713 74.8063 4.25495C75.0793 4.72519 75.2159 5.27128 75.2159 5.89321H74.5446C74.5446 6.50755 74.4271 7.05364 74.192 7.53146C73.9644 8.0017 73.6497 8.37334 73.2477 8.64638C72.8457 8.91184 72.383 9.04457 71.8597 9.04457ZM72.0645 11.5816C71.526 11.5816 71.0216 11.4754 70.5514 11.263C70.0812 11.0507 69.683 10.7397 69.3568 10.3301C69.2582 10.2012 69.2203 10.0685 69.2431 9.93196C69.2734 9.79544 69.3492 9.68546 69.4706 9.60203C69.6071 9.51102 69.7474 9.48068 69.8915 9.51102C70.0432 9.54136 70.1646 9.6172 70.2556 9.73855C70.4604 9.99643 70.7183 10.1974 71.0292 10.3415C71.3402 10.4856 71.6929 10.5577 72.0873 10.5577C72.4513 10.5577 72.785 10.4705 73.0884 10.296C73.3994 10.1216 73.6459 9.8637 73.8279 9.5224C74.0099 9.18109 74.1009 8.76394 74.1009 8.27095V6.65545L74.4764 5.6543L75.2159 5.89321V8.35059C75.2159 8.94976 75.0831 9.49206 74.8177 9.97747C74.5522 10.4705 74.1806 10.8611 73.7028 11.1493C73.2325 11.4375 72.6864 11.5816 72.0645 11.5816ZM72.0873 8.02066C72.4816 8.02066 72.8305 7.92965 73.1339 7.74762C73.4373 7.56559 73.6724 7.3153 73.8393 6.99675C74.0137 6.6782 74.1009 6.31036 74.1009 5.89321C74.1009 5.47606 74.0137 5.10821 73.8393 4.78966C73.6724 4.46353 73.4373 4.20945 73.1339 4.02742C72.8305 3.84539 72.4816 3.75438 72.0873 3.75438C71.6929 3.75438 71.344 3.84539 71.0406 4.02742C70.7372 4.20945 70.4983 4.46353 70.3239 4.78966C70.1494 5.10821 70.0622 5.47606 70.0622 5.89321C70.0622 6.31036 70.1494 6.6782 70.3239 6.99675C70.4983 7.3153 70.7372 7.56559 71.0406 7.74762C71.344 7.92965 71.6929 8.02066 72.0873 8.02066Z" fill="#080C0C"/>
<path d="M64.5257 9.04457C63.9114 9.04457 63.3691 8.91184 62.8989 8.64639C62.4286 8.37334 62.057 8.0017 61.7839 7.53146C61.5185 7.05364 61.3857 6.50755 61.3857 5.89321C61.3857 5.27128 61.5185 4.72519 61.7839 4.25495C62.057 3.77713 62.4286 3.40549 62.8989 3.14003C63.3691 2.86699 63.9114 2.73047 64.5257 2.73047C65.1325 2.73047 65.671 2.86699 66.1412 3.14003C66.6115 3.40549 66.9793 3.77713 67.2448 4.25495C67.5178 4.72519 67.6543 5.27128 67.6543 5.89321C67.6543 6.50755 67.5216 7.05364 67.2562 7.53146C66.9907 8.0017 66.6228 8.37334 66.1526 8.64639C65.6824 8.91184 65.1401 9.04457 64.5257 9.04457ZM64.5257 8.02066C64.9201 8.02066 65.269 7.92965 65.5724 7.74762C65.8758 7.56559 66.1109 7.3153 66.2778 6.99675C66.4522 6.67821 66.5394 6.31036 66.5394 5.89321C66.5394 5.47606 66.4522 5.10821 66.2778 4.78966C66.1109 4.46353 65.8758 4.20945 65.5724 4.02742C65.269 3.84539 64.9201 3.75438 64.5257 3.75438C64.1313 3.75438 63.7824 3.84539 63.4791 4.02742C63.1757 4.20945 62.9368 4.46353 62.7623 4.78966C62.5879 5.10821 62.5007 5.47606 62.5007 5.89321C62.5007 6.31036 62.5879 6.67821 62.7623 6.99675C62.9368 7.3153 63.1757 7.56559 63.4791 7.74762C63.7824 7.92965 64.1313 8.02066 64.5257 8.02066Z" fill="#080C0C"/>
<path d="M57.4729 2.78729C57.5866 2.78729 57.689 2.81763 57.7801 2.87831C57.8711 2.93898 57.9431 3.03379 57.9962 3.16273L60.3398 8.24814C60.4081 8.39983 60.4157 8.53635 60.3626 8.6577C60.3095 8.77147 60.2185 8.85869 60.0895 8.91937C59.9227 8.99521 59.7786 9.01417 59.6572 8.97625C59.5359 8.93833 59.4335 8.84352 59.35 8.69183L57.2112 3.83395H57.7914L55.5843 8.69183C55.5161 8.83594 55.4137 8.93074 55.2772 8.97625C55.1482 9.01417 55.0041 8.99521 54.8448 8.91937C54.7007 8.85111 54.5984 8.76009 54.5377 8.64632C54.4846 8.53256 54.496 8.39983 54.5718 8.24814L56.9268 3.16273C57.0406 2.91244 57.2226 2.78729 57.4729 2.78729Z" fill="#080C0C"/>
<path d="M50.3978 9.04457C49.7835 9.04457 49.2412 8.91184 48.7709 8.64639C48.3007 8.37334 47.929 8.0017 47.656 7.53146C47.3905 7.05364 47.2578 6.50755 47.2578 5.89321C47.2578 5.27128 47.3905 4.72519 47.656 4.25495C47.929 3.77713 48.3007 3.40549 48.7709 3.14003C49.2412 2.86699 49.7835 2.73047 50.3978 2.73047C51.0046 2.73047 51.5431 2.86699 52.0133 3.14003C52.4835 3.40549 52.8514 3.77713 53.1168 4.25495C53.3899 4.72519 53.5264 5.27128 53.5264 5.89321C53.5264 6.50755 53.3937 7.05364 53.1282 7.53146C52.8628 8.0017 52.4949 8.37334 52.0247 8.64639C51.5544 8.91184 51.0121 9.04457 50.3978 9.04457ZM50.3978 8.02066C50.7922 8.02066 51.1411 7.92965 51.4445 7.74762C51.7478 7.56559 51.983 7.3153 52.1498 6.99675C52.3243 6.67821 52.4115 6.31036 52.4115 5.89321C52.4115 5.47606 52.3243 5.10821 52.1498 4.78966C51.983 4.46353 51.7478 4.20945 51.4445 4.02742C51.1411 3.84539 50.7922 3.75438 50.3978 3.75438C50.0034 3.75438 49.6545 3.84539 49.3511 4.02742C49.0478 4.20945 48.8088 4.46353 48.6344 4.78966C48.46 5.10821 48.3727 5.47606 48.3727 5.89321C48.3727 6.31036 48.46 6.67821 48.6344 6.99675C48.8088 7.3153 49.0478 7.56559 49.3511 7.74762C49.6545 7.92965 50.0034 8.02066 50.3978 8.02066Z" fill="#080C0C"/>
<path d="M43.3992 9.11279C42.7849 9.11279 42.2085 8.99902 41.67 8.77148C41.1391 8.53636 40.6726 8.21402 40.2706 7.80446C39.8762 7.38731 39.5653 6.9019 39.3377 6.34823C39.1178 5.79456 39.0078 5.19539 39.0078 4.5507C39.0078 3.91361 39.1178 3.32201 39.3377 2.77593C39.5653 2.22226 39.8762 1.74064 40.2706 1.33108C40.6726 0.913933 41.1391 0.587799 41.67 0.352679C42.2009 0.11756 42.7773 0 43.3992 0C43.9832 0 44.4838 0.075845 44.901 0.227535C45.3257 0.379225 45.7504 0.629514 46.1752 0.978401C46.2358 1.02391 46.2814 1.07321 46.3117 1.1263C46.3496 1.17181 46.3724 1.22111 46.38 1.2742C46.3951 1.3197 46.4027 1.37659 46.4027 1.44485C46.4027 1.58895 46.3496 1.71031 46.2434 1.8089C46.1448 1.89992 46.0235 1.95301 45.8794 1.96818C45.7353 1.97576 45.595 1.92646 45.4584 1.82028C45.1778 1.57758 44.8858 1.39176 44.5824 1.26282C44.2866 1.13388 43.8922 1.06942 43.3992 1.06942C42.9518 1.06942 42.5308 1.16043 42.1364 1.34246C41.742 1.52449 41.3931 1.77477 41.0898 2.09332C40.794 2.41187 40.5626 2.78351 40.3958 3.20825C40.2289 3.62539 40.1455 4.07288 40.1455 4.5507C40.1455 5.03611 40.2289 5.49118 40.3958 5.91592C40.5626 6.33306 40.794 6.70091 41.0898 7.01946C41.3931 7.33801 41.742 7.5883 42.1364 7.77033C42.5308 7.94477 42.9518 8.03199 43.3992 8.03199C43.7861 8.03199 44.1501 7.96753 44.4914 7.83859C44.8403 7.70207 45.174 7.51625 45.4926 7.28113C45.6291 7.18253 45.7618 7.14081 45.8908 7.15598C46.0273 7.16357 46.141 7.21666 46.2321 7.31526C46.3231 7.40627 46.3686 7.53521 46.3686 7.70207C46.3686 7.77791 46.3534 7.85376 46.3231 7.9296C46.2927 7.99786 46.2472 8.06233 46.1865 8.12301C45.777 8.44914 45.3371 8.69564 44.8668 8.8625C44.4042 9.02936 43.915 9.11279 43.3992 9.11279Z" fill="#080C0C"/>
</svg>
