<?xml version="1.0" encoding="utf-8"?>
<!-- Generated by IcoMoon.io -->
<svg version="1.1" xmlns="http://www.w3.org/2000/svg" xmlns:xlink="http://www.w3.org/1999/xlink" width="752" height="32" viewBox="0 0 752 32">
<svg id="icon-arrow_back" width="32" height="32" viewBox="0 0 32 32" x="0" y="0">
<path stroke-linejoin="miter" stroke-linecap="butt" stroke-miterlimit="4" stroke-width="1.3333" stroke="#000" fill="#000" d="M16.011 6.249c0.113 0 0.212 0.035 0.321 0.144 0.089 0.083 0.144 0.201 0.144 0.331 0 0 0 0 0 0.001v-0c0 0.116-0.035 0.213-0.144 0.324l-8.481 8.481h17.88c0.161 0 0.263 0.048 0.347 0.133 0.080 0.078 0.13 0.187 0.13 0.307 0 0.010-0 0.020-0.001 0.030l0-0.001c0 0.16-0.045 0.256-0.128 0.337s-0.195 0.133-0.321 0.133c-0.010 0-0.019-0-0.029-0.001l0.001 0h-17.88l8.473 8.473c0.109 0.108 0.147 0.211 0.148 0.333v0.001c0 0.005 0 0.010 0 0.015 0 0.087-0.028 0.167-0.074 0.232l0.001-0.001-0.069 0.081c-0.076 0.088-0.188 0.143-0.313 0.143-0.004 0-0.007-0-0.011-0h0.001c-0.001 0-0.002 0-0.003 0-0.134 0-0.255-0.059-0.338-0.152l-0-0-9.264-9.263c-0.050-0.046-0.091-0.102-0.12-0.163l-0.001-0.003v-0.001c-0.019-0.045-0.031-0.098-0.031-0.154 0-0.004 0-0.008 0-0.012v0.001q0-0.093 0.031-0.163v-0.001c0.030-0.065 0.071-0.12 0.12-0.166l0-0 9.268-9.267c0.085-0.093 0.207-0.151 0.343-0.152h0z"></path>
</svg>
<svg id="icon-logo" width="144" height="32" viewBox="0 0 144 32" x="48" y="0">
<path d="M40.96 26.995q1.435 0.744 2.417-0.479 0.984-1.22 0.24-2.551l-3.775-7.12-2.871 7.811zM29.689 24.763h3.747l5.131-12.857q0.32-0.744 0.24-1.461t-0.877-1.089l-4.413-1.912c-0.215-0.117-0.472-0.185-0.744-0.185s-0.529 0.069-0.752 0.189l0.008-0.004q-0.744 0.371-0.797 1.115zM13.943 24.763h3.68l-1.489-16.205q-0.053-0.796-0.717-1.168-0.664-0.373-1.568 0.053l-4.2 1.805q-0.691 0.267-0.771 1.196t0.187 1.673zM6.405 26.995l3.987-2.337-2.871-7.811-3.773 7.385q-0.744 1.488 0.319 2.417t2.339 0.345zM20.812 24.763h5.688l1.753-19.34q0.107-0.744-0.399-1.248c-0.307-0.312-0.735-0.506-1.207-0.506-0.014 0-0.029 0-0.043 0.001l0.002-0h-5.848q-0.851 0-1.276 0.505-0.427 0.504-0.373 1.248zM5.236 30.528q-2.2 0-3.719-1.571-1.517-1.569-1.517-3.769 0-0.676 0.24-1.32 0.239-0.64 0.529-1.264l4.853-9.396q-0.8-2.16-0.103-4.277 0.695-2.115 2.697-2.991l4.413-1.805q0.851-0.32 1.727-0.379 0.877-0.059 1.635 0.405c0.238-1.155 0.847-2.139 1.694-2.848l0.008-0.006c0.803-0.695 1.857-1.118 3.011-1.118 0.019 0 0.039 0 0.058 0l-0.003-0h5.847q1.74 0 3.067 1.037c0.855 0.664 1.465 1.608 1.695 2.693l0.005 0.030c0.411-0.162 0.886-0.256 1.384-0.256 0.095 0 0.19 0.003 0.283 0.010l-0.013-0.001q0.857 0.060 1.655 0.432l4.465 1.805q2.044 0.783 2.771 2.865 0.728 2.083-0.149 4.084l4.827 9.661q0.227 0.611 0.497 1.207 0.272 0.596 0.272 1.219 0 2.345-1.677 3.949-1.677 1.603-4.037 1.603-0.609 0-1.153-0.245c-0.176-0.090-0.539-0.248-0.905-0.399l-0.195-0.071-3.191-1.569h-25.099l-3.020 1.571q-0.676 0.277-1.379 0.497-0.701 0.219-1.472 0.219zM143.095 27.168c-0.006 0-0.012 0-0.019 0-0.2 0-0.381-0.082-0.512-0.214l-0-0c-0.132-0.142-0.212-0.333-0.212-0.543 0-0.006 0-0.012 0-0.018l-0 0.001v-2.003h-2.139v-0.197q-0.804 0-1.427-0.319c-0.404-0.203-0.733-0.503-0.965-0.87l-0.006-0.010c-0.219-0.355-0.349-0.785-0.349-1.246 0-0.020 0-0.041 0.001-0.061l-0 0.003q0-0.804 0.379-1.441 0.395-0.639 1.061-1 0.683-0.38 1.563-0.38h2.624q0.349 0 0.561 0.212c0.132 0.137 0.214 0.323 0.214 0.529 0 0.011-0 0.022-0.001 0.033l0-0.002v6.767c-0.004 0.213-0.090 0.405-0.228 0.547l0-0c-0.128 0.132-0.308 0.213-0.506 0.213-0.014 0-0.029-0-0.043-0.001l0.002 0zM137.711 26.985q-0.244-0.213-0.228-0.469c0.011-0.18 0.077-0.342 0.183-0.472l-0.001 0.002 1.851-2.412h2.019l-2.595 3.231c-0.134 0.195-0.355 0.321-0.606 0.321-0.011 0-0.022-0-0.033-0.001l0.002 0q-0.379-0.016-0.591-0.199zM140.471 23.119h1.881v-2.807h-1.881q-0.607 0-1.061 0.393c-0.279 0.227-0.455 0.57-0.455 0.954 0 0.012 0 0.023 0 0.035l-0-0.002q0 0.636 0.455 1.031t1.061 0.395zM134.519 27.168c-0.005 0-0.011 0-0.017 0-0.21 0-0.402-0.081-0.545-0.214l0 0c-0.132-0.142-0.214-0.334-0.214-0.544 0-0.006 0-0.011 0-0.017v0.001-6.751q0-0.349 0.213-0.561c0.142-0.132 0.334-0.214 0.544-0.214 0.006 0 0.012 0 0.018 0l-0.001-0c0.011-0.001 0.025-0.001 0.038-0.001 0.199 0 0.378 0.082 0.507 0.214l0 0c0.123 0.14 0.198 0.325 0.198 0.527 0 0.012-0 0.023-0.001 0.035l0-0.002v6.752c0 0.007 0 0.015 0 0.024 0 0.205-0.075 0.393-0.199 0.538l0.001-0.001c-0.129 0.132-0.308 0.214-0.507 0.214-0.013 0-0.027-0-0.040-0.001l0.002 0zM128.284 27.168c-0.009 0-0.019 0.001-0.029 0.001-0.202 0-0.385-0.082-0.518-0.214l0 0c-0.123-0.143-0.198-0.331-0.198-0.536 0-0.008 0-0.017 0-0.025l-0 0.001v-6.751q0-0.349 0.197-0.561c0.133-0.132 0.316-0.214 0.518-0.214 0.010 0 0.020 0 0.030 0.001l-0.001-0c0.009-0 0.020-0.001 0.031-0.001 0.206 0 0.392 0.082 0.529 0.214l-0-0q0.213 0.213 0.213 0.56v6.752c0 0.005 0 0.010 0 0.016 0 0.21-0.081 0.402-0.214 0.545l0-0c-0.137 0.132-0.323 0.214-0.529 0.214-0.011 0-0.022-0-0.033-0.001l0.002 0zM128.86 23.541v-1.364h5.324v1.365zM117.8 30.717c-0.005 0-0.012 0-0.018 0-0.212 0-0.404-0.087-0.542-0.227l-0-0c-0.132-0.133-0.214-0.316-0.214-0.518 0-0.010 0-0.020 0.001-0.030l-0 0.001v-6.917q0.016-1.2 0.561-2.155c0.359-0.628 0.863-1.137 1.468-1.491l0.019-0.010q0.941-0.56 2.124-0.56 1.2 0 2.139 0.56c0.624 0.364 1.128 0.873 1.476 1.482l0.010 0.020q0.56 0.956 0.561 2.155 0 1.2-0.516 2.153-0.5 0.94-1.38 1.503-0.88 0.547-1.987 0.547-0.896 0-1.653-0.365c-0.503-0.257-0.927-0.599-1.269-1.010l-0.005-0.006v4.096c0 0.007 0 0.015 0 0.024 0 0.204-0.082 0.388-0.214 0.523l0-0c-0.134 0.14-0.322 0.227-0.531 0.227-0.010 0-0.021-0-0.031-0.001l0.001 0zM121.201 25.864q0.773 0 1.379-0.365 0.608-0.379 0.956-1.016 0.364-0.652 0.364-1.456 0-0.82-0.364-1.456c-0.224-0.425-0.549-0.77-0.945-1.011l-0.011-0.006c-0.379-0.238-0.84-0.379-1.333-0.379-0.016 0-0.033 0-0.049 0l0.002-0c-0.009-0-0.020-0-0.031-0-0.996 0-1.861 0.56-2.298 1.382l-0.007 0.014c-0.22 0.406-0.35 0.889-0.35 1.403 0 0.019 0 0.038 0.001 0.056l-0-0.003q0 0.804 0.349 1.456 0.348 0.639 0.956 1.016 0.621 0.364 1.38 0.364zM111.657 27.228q-1.259 0-2.244-0.531c-0.639-0.358-1.158-0.862-1.523-1.468l-0.010-0.018q-0.545-0.956-0.545-2.184 0-1.244 0.516-2.184 0.531-0.956 1.456-1.487 0.925-0.547 2.124-0.547 1.183 0 2.032 0.531 0.849 0.516 1.289 1.441 0.456 0.909 0.456 2.109 0 0.288-0.197 0.485c-0.125 0.113-0.291 0.182-0.473 0.182-0.010 0-0.020-0-0.029-0.001l0.001 0h-6.113v-1.213h6.068l-0.621 0.425c-0.002-0.491-0.114-0.955-0.312-1.37l0.008 0.019c-0.183-0.396-0.463-0.72-0.81-0.951l-0.008-0.005q-0.532-0.348-1.289-0.348-0.865 0-1.487 0.379-0.608 0.379-0.925 1.047-0.32 0.653-0.32 1.487 0 0.835 0.38 1.487 0.38 0.653 1.047 1.031 0.667 0.38 1.533 0.38 0.468 0 0.955-0.167 0.5-0.183 0.804-0.409c0.133-0.104 0.302-0.167 0.485-0.168h0c0.016-0.001 0.035-0.002 0.054-0.002 0.16 0 0.305 0.058 0.418 0.155l-0.001-0.001q0.257 0.228 0.273 0.501 0.015 0.272-0.244 0.469-0.515 0.411-1.289 0.667c-0.433 0.158-0.932 0.252-1.453 0.259l-0.003 0zM104.565 27.183c-0.005 0-0.010 0-0.016 0-0.21 0-0.402-0.081-0.545-0.214l0.001 0c-0.132-0.142-0.213-0.334-0.213-0.544 0-0.006 0-0.011 0-0.017v0.001-4.339q0-0.955-0.469-1.411-0.472-0.469-1.229-0.469-0.788 0-1.304 0.547-0.501 0.544-0.501 1.395h-1.259q0-0.987 0.424-1.729 0.427-0.76 1.184-1.184c0.491-0.267 1.075-0.425 1.696-0.425 0.022 0 0.045 0 0.067 0.001l-0.003-0q0.864 0 1.531 0.379 0.668 0.379 1.032 1.123 0.38 0.728 0.38 1.775v4.339c0 0.005 0 0.010 0 0.016 0 0.21-0.081 0.402-0.214 0.545l0-0c-0.137 0.132-0.323 0.214-0.529 0.214-0.011 0-0.022-0-0.033-0.001l0.002 0zM94.449 27.183c-0.005 0-0.010 0-0.016 0-0.21 0-0.402-0.081-0.545-0.214l0.001 0c-0.132-0.142-0.213-0.334-0.213-0.544 0-0.006 0-0.011 0-0.017v0.001-6.751q0-0.348 0.213-0.56c0.142-0.132 0.334-0.213 0.544-0.213 0.006 0 0.011 0 0.017 0h-0.001q0.348 0 0.561 0.213 0.213 0.212 0.213 0.56v6.751c0 0.005 0 0.010 0 0.016 0 0.21-0.081 0.402-0.214 0.545l0-0c-0.137 0.132-0.323 0.214-0.529 0.214-0.011 0-0.022-0-0.033-0.001l0.002 0zM99.517 27.183c-0.005 0-0.011 0-0.017 0-0.21 0-0.402-0.081-0.545-0.214l0.001 0c-0.132-0.142-0.213-0.334-0.213-0.544 0-0.006 0-0.011 0-0.017v0.001-4.339q0-0.955-0.469-1.411-0.469-0.469-1.229-0.469-0.788 0-1.304 0.547-0.516 0.544-0.516 1.395h-0.957q0-0.987 0.393-1.729 0.393-0.76 1.093-1.184c0.439-0.267 0.97-0.424 1.538-0.424 0.019 0 0.038 0 0.056 0.001l-0.003-0q0.864 0 1.533 0.379 0.665 0.379 1.031 1.123 0.379 0.728 0.379 1.775v4.339c0 0.005 0 0.010 0 0.016 0 0.21-0.081 0.402-0.214 0.545l0-0c-0.137 0.132-0.323 0.214-0.529 0.214-0.011 0-0.022-0-0.033-0.001l0.002 0zM88.477 27.228q-1.215 0-2.169-0.547c-0.62-0.369-1.123-0.877-1.476-1.482l-0.011-0.020c-0.334-0.602-0.531-1.321-0.531-2.086 0-0.024 0-0.048 0.001-0.071l-0 0.004q0-1.228 0.531-2.184t1.456-1.487q0.927-0.547 2.124-0.547 0.893 0 1.639 0.349c0.528 0.247 0.972 0.59 1.329 1.010l0.005 0.006q0.213 0.243 0.152 0.501c-0.055 0.191-0.173 0.348-0.33 0.451l-0.003 0.002c-0.098 0.073-0.222 0.118-0.357 0.118-0.040 0-0.080-0.004-0.118-0.012l0.004 0.001c-0.186-0.047-0.345-0.142-0.469-0.272l-0-0c-0.448-0.486-1.087-0.79-1.797-0.79-0.019 0-0.037 0-0.056 0.001l0.003-0q-0.773 0-1.365 0.364c-0.397 0.236-0.713 0.572-0.919 0.973l-0.006 0.014q-0.333 0.636-0.333 1.501 0 0.82 0.333 1.456 0.348 0.639 0.956 1.016 0.607 0.364 1.411 0.364 0.529 0 0.925-0.12 0.408-0.137 0.743-0.411c0.134-0.119 0.307-0.197 0.498-0.213l0.003-0c0.023-0.003 0.049-0.005 0.075-0.005 0.145 0 0.278 0.054 0.379 0.143l-0.001-0.001c0.154 0.115 0.26 0.285 0.289 0.481l0 0.004c0.002 0.018 0.003 0.040 0.003 0.061 0 0.163-0.071 0.309-0.184 0.409l-0.001 0q-1.093 1.016-2.731 1.016zM78.016 27.244q-1.047 0-1.88-0.44c-0.554-0.313-0.998-0.762-1.297-1.303l-0.009-0.017q-0.469-0.864-0.469-2.124v-3.731q0-0.333 0.212-0.547c0.138-0.14 0.33-0.227 0.542-0.227 0.006 0 0.013 0 0.019 0l-0.001-0q0.336 0 0.547 0.227 0.227 0.213 0.227 0.547v3.731q0 0.851 0.32 1.411 0.32 0.547 0.864 0.82 0.547 0.257 1.229 0.257 0.652 0 1.152-0.257 0.516-0.259 0.82-0.699t0.303-0.987h0.956q0 0.943-0.471 1.7-0.453 0.76-1.259 1.199-0.788 0.44-1.805 0.44zM81.369 27.168c-0.005 0-0.011 0-0.017 0-0.21 0-0.402-0.081-0.545-0.214l0.001 0c-0.132-0.142-0.213-0.334-0.213-0.544 0-0.006 0-0.011 0-0.017v0.001-6.765q0-0.349 0.213-0.561c0.142-0.132 0.334-0.213 0.544-0.213 0.006 0 0.011 0 0.017 0h-0.001q0.349 0 0.561 0.213 0.213 0.212 0.213 0.56v6.767c0 0.005 0 0.010 0 0.016 0 0.21-0.081 0.402-0.214 0.545l0-0c-0.137 0.132-0.323 0.214-0.529 0.214-0.011 0-0.022-0-0.033-0.001l0.002 0zM78.335 17.779q-0.773 0-1.395-0.259c-0.394-0.165-0.725-0.413-0.983-0.724l-0.003-0.004c-0.227-0.282-0.364-0.645-0.364-1.040 0-0.002 0-0.005 0-0.007v0q0-0.32 0.197-0.531c0.118-0.131 0.288-0.213 0.477-0.213 0.003 0 0.006 0 0.009 0h-0q0.304 0 0.485 0.213c0.123 0.133 0.198 0.311 0.198 0.506 0 0.009-0 0.017-0 0.026l0-0.001q0 0.38 0.395 0.653 0.393 0.256 0.987 0.257 0.589 0 0.985-0.259 0.393-0.273 0.393-0.652 0-0.32 0.197-0.531c0.118-0.131 0.288-0.213 0.477-0.213 0.003 0 0.006 0 0.009 0h-0q0.304 0 0.485 0.213c0.123 0.133 0.198 0.311 0.198 0.506 0 0.009-0 0.017-0 0.026l0-0.001q0 0.576-0.364 1.047-0.364 0.456-0.987 0.728c-0.397 0.164-0.858 0.259-1.341 0.259-0.019 0-0.038-0-0.057-0l0.003 0zM67.9 27.228q-1.107 0-1.987-0.547c-0.586-0.377-1.058-0.883-1.385-1.48l-0.011-0.021c-0.316-0.602-0.501-1.315-0.501-2.071 0-0.029 0-0.058 0.001-0.087l-0 0.004q0-1.2 0.547-2.155 0.56-0.955 1.501-1.501c0.596-0.352 1.313-0.56 2.078-0.56 0.021 0 0.043 0 0.064 0l-0.003-0q1.183 0 2.123 0.56c0.624 0.364 1.128 0.873 1.476 1.482l0.010 0.020q0.561 0.956 0.561 2.155h-0.591q0 1.2-0.516 2.153-0.501 0.94-1.38 1.503-0.88 0.547-1.987 0.547zM68.205 25.864q0.773 0 1.38-0.364 0.605-0.379 0.956-1.016c0.219-0.412 0.348-0.901 0.348-1.419 0-0.013-0-0.026-0-0.039l0 0.002q0-0.82-0.348-1.456c-0.224-0.425-0.549-0.77-0.945-1.011l-0.011-0.006c-0.379-0.238-0.84-0.379-1.333-0.379-0.016 0-0.033 0-0.049 0l0.002-0q-0.76 0-1.381 0.379c-0.41 0.25-0.739 0.594-0.964 1.003l-0.007 0.014c-0.219 0.406-0.349 0.888-0.349 1.4 0 0.020 0 0.039 0.001 0.059l-0-0.003q0 0.804 0.348 1.456 0.364 0.639 0.971 1.016 0.623 0.364 1.381 0.364zM71.603 27.184c-0.005 0-0.010 0-0.016 0-0.21 0-0.402-0.081-0.545-0.214l0.001 0c-0.132-0.142-0.213-0.334-0.213-0.544 0-0.006 0-0.011 0-0.017v0.001-2.32l0.288-1.609 1.259 0.547v3.383c0 0.005 0 0.012 0 0.018 0 0.212-0.087 0.404-0.227 0.542l-0 0c-0.133 0.132-0.316 0.214-0.518 0.214-0.010 0-0.020-0-0.030-0.001l0.001 0zM53.176 27.168c-0.005 0-0.011 0-0.017 0-0.21 0-0.402-0.081-0.545-0.214l0.001 0c-0.132-0.142-0.214-0.334-0.214-0.544 0-0.006 0-0.011 0-0.017v0.001-6.751q0-0.349 0.213-0.561c0.142-0.132 0.334-0.214 0.544-0.214 0.006 0 0.012 0 0.018 0l-0.001-0q0.487 0 0.819 0.471l3.14 4.536 3.14-4.536q0.333-0.469 0.82-0.469c0.010-0 0.021-0.001 0.033-0.001 0.205 0 0.391 0.081 0.528 0.213l-0-0q0.213 0.213 0.213 0.56v6.752c0 0.005 0 0.010 0 0.016 0 0.21-0.081 0.402-0.214 0.545l0-0c-0.137 0.132-0.323 0.214-0.529 0.214-0.011 0-0.022-0-0.033-0.001l0.002 0c-0.005 0-0.011 0-0.017 0-0.21 0-0.402-0.081-0.545-0.214l0.001 0c-0.132-0.142-0.214-0.334-0.214-0.544 0-0.006 0-0.011 0-0.017v0.001-5.523l0.395 0.121-2.791 3.944q-0.38 0.532-0.819 0.532-0.44-0.015-0.804-0.532l-2.747-3.943 0.395-0.123v5.523c0 0.005 0 0.010 0 0.016 0 0.21-0.081 0.402-0.214 0.545l0-0c-0.137 0.132-0.323 0.214-0.529 0.214-0.011 0-0.022-0-0.033-0.001l0.002 0zM113.865 12.060q-1.107 0-1.987-0.547c-0.586-0.377-1.058-0.883-1.385-1.48l-0.011-0.021c-0.316-0.602-0.502-1.316-0.502-2.074 0-0.029 0-0.057 0.001-0.085l-0 0.004q0-1.197 0.547-2.153 0.56-0.956 1.501-1.503c0.596-0.352 1.313-0.56 2.078-0.56 0.021 0 0.043 0 0.064 0l-0.003-0q1.184 0 2.124 0.56c0.624 0.365 1.128 0.874 1.476 1.483l0.010 0.020q0.56 0.956 0.56 2.153h-0.591q0 1.2-0.516 2.155-0.5 0.94-1.38 1.501-0.88 0.547-1.987 0.547zM114.168 10.695q0.773 0 1.381-0.364 0.607-0.38 0.955-1.017 0.349-0.652 0.349-1.456 0-0.819-0.349-1.456c-0.224-0.424-0.549-0.769-0.943-1.010l-0.011-0.006c-0.379-0.239-0.841-0.38-1.335-0.38-0.016 0-0.032 0-0.049 0l0.002-0q-0.759 0-1.38 0.38c-0.409 0.249-0.739 0.593-0.964 1.002l-0.007 0.014c-0.22 0.406-0.35 0.889-0.35 1.403 0 0.019 0 0.038 0.001 0.056l-0-0.003q0 0.804 0.349 1.456 0.364 0.637 0.971 1.017 0.623 0.364 1.38 0.364zM117.567 12.015c-0.005 0-0.011 0-0.017 0-0.21 0-0.402-0.081-0.545-0.214l0.001 0c-0.132-0.142-0.213-0.334-0.213-0.544 0-0.006 0-0.011 0-0.017v0.001-2.321l0.289-1.608 1.259 0.547v3.381c0 0.006 0 0.013 0 0.020 0 0.212-0.087 0.404-0.227 0.542l-0 0c-0.133 0.132-0.316 0.214-0.518 0.214-0.010 0-0.020-0-0.030-0.001l0.001 0zM109.175 11.817q-0.197 0.181-0.56 0.181c-0.001 0-0.002 0-0.003 0-0.21 0-0.402-0.081-0.544-0.214l0.001 0-3.687-3.959 3.475-3.883c0.139-0.144 0.332-0.235 0.545-0.243l0.001-0q0.363-0.031 0.56 0.152c0.139 0.122 0.233 0.291 0.258 0.481l0 0.004c0.002 0.018 0.003 0.039 0.003 0.061 0 0.16-0.066 0.305-0.171 0.409l-0 0-2.745 2.944 2.913 3.124c0.121 0.117 0.196 0.28 0.196 0.461 0 0.003-0 0.007-0 0.010v-0.001q0 0.257-0.243 0.471zM103.168 12.013c-0.009 0-0.020 0.001-0.031 0.001-0.196 0-0.373-0.082-0.499-0.212l-0-0c-0.123-0.143-0.198-0.331-0.198-0.536 0-0.008 0-0.017 0-0.025l-0 0.001v-6.768q0-0.349 0.197-0.56c0.126-0.132 0.304-0.214 0.501-0.214 0.010 0 0.021 0 0.031 0.001l-0.001-0c0.010-0 0.021-0.001 0.033-0.001 0.206 0 0.392 0.082 0.529 0.214l-0-0q0.227 0.211 0.227 0.56v2.533h1.943v1.427h-1.941v2.807c0 0.006 0 0.013 0 0.020 0 0.212-0.087 0.404-0.227 0.542l-0 0c-0.137 0.132-0.323 0.214-0.529 0.214-0.012 0-0.024-0-0.036-0.001l0.002 0zM95.813 12.060q-1.139 0-2.017-0.532c-0.578-0.37-1.042-0.872-1.355-1.466l-0.010-0.021q-0.501-0.953-0.501-2.184 0-1.244 0.531-2.184 0.547-0.956 1.487-1.487 0.941-0.547 2.169-0.547 1.213 0 2.155 0.547 0.94 0.531 1.471 1.487 0.547 0.94 0.547 2.184h-0.895q0 1.229-0.471 2.184c-0.29 0.609-0.718 1.11-1.247 1.479l-0.012 0.008c-0.505 0.334-1.125 0.533-1.792 0.533-0.021 0-0.041-0-0.062-0.001l0.003 0zM96.085 15.443c-0.012 0-0.027 0-0.041 0-0.716 0-1.395-0.157-2.006-0.438l0.030 0.012c-0.638-0.293-1.171-0.714-1.585-1.235l-0.007-0.009c-0.099-0.116-0.159-0.267-0.159-0.432 0-0.035 0.003-0.069 0.008-0.102l-0 0.004c0.042-0.185 0.152-0.34 0.301-0.438l0.003-0.002c0.116-0.084 0.262-0.135 0.42-0.135 0.050 0 0.098 0.005 0.145 0.015l-0.005-0.001q0.304 0.060 0.487 0.304 0.408 0.515 1.031 0.803 0.623 0.289 1.411 0.289 0.728 0 1.335-0.349 0.623-0.348 0.987-1.032 0.364-0.68 0.364-1.668v-2.155l0.5-1.333 0.987 0.317v3.277q0 1.197-0.531 2.168c-0.351 0.653-0.856 1.183-1.469 1.553l-0.018 0.010q-0.941 0.577-2.185 0.577zM96.116 10.695q0.789 0 1.396-0.364c0.401-0.242 0.721-0.582 0.933-0.988l0.007-0.014q0.349-0.639 0.349-1.472t-0.349-1.471c-0.215-0.426-0.536-0.772-0.929-1.011l-0.011-0.006c-0.385-0.229-0.85-0.364-1.346-0.364-0.018 0-0.035 0-0.053 0l0.003-0q-0.788 0-1.395 0.364c-0.407 0.248-0.732 0.593-0.949 1.003l-0.007 0.014c-0.22 0.408-0.35 0.894-0.35 1.409 0 0.022 0 0.043 0.001 0.064l-0-0.003q0 0.835 0.349 1.472 0.348 0.637 0.956 1 0.607 0.365 1.395 0.365zM86.035 12.060q-1.229 0-2.169-0.532c-0.623-0.361-1.126-0.864-1.476-1.467l-0.010-0.019q-0.531-0.953-0.531-2.184 0-1.244 0.531-2.184 0.547-0.956 1.487-1.487 0.94-0.547 2.169-0.547 1.213 0 2.153 0.547 0.94 0.531 1.472 1.487 0.547 0.94 0.547 2.184 0 1.229-0.532 2.184c-0.353 0.623-0.852 1.127-1.452 1.477l-0.019 0.010q-0.941 0.532-2.169 0.532zM86.035 10.695q0.788 0 1.395-0.364c0.402-0.242 0.722-0.582 0.935-0.988l0.007-0.014q0.348-0.639 0.348-1.472t-0.348-1.471c-0.215-0.427-0.537-0.772-0.93-1.011l-0.011-0.006c-0.385-0.229-0.85-0.364-1.346-0.364-0.017 0-0.034 0-0.052 0l0.003-0q-0.789 0-1.396 0.364c-0.407 0.248-0.732 0.593-0.949 1.003l-0.007 0.014c-0.22 0.408-0.349 0.892-0.349 1.407 0 0.022 0 0.045 0.001 0.067l-0-0.003q0 0.835 0.348 1.472 0.351 0.637 0.956 1 0.605 0.365 1.396 0.365zM76.631 3.716q0.227 0 0.409 0.121t0.288 0.38l3.125 6.78q0.136 0.303 0.031 0.547c-0.077 0.156-0.204 0.278-0.359 0.346l-0.005 0.002q-0.333 0.152-0.577 0.076-0.241-0.075-0.409-0.379l-2.852-6.477h0.773l-2.943 6.477c-0.077 0.179-0.224 0.315-0.405 0.377l-0.005 0.001q-0.259 0.077-0.576-0.076c-0.175-0.075-0.316-0.201-0.407-0.36l-0.002-0.004q-0.107-0.227 0.045-0.531l3.14-6.78q0.228-0.5 0.728-0.501zM67.197 12.060q-1.229 0-2.169-0.532c-0.623-0.361-1.126-0.864-1.476-1.467l-0.010-0.019q-0.531-0.953-0.531-2.184 0-1.244 0.531-2.184 0.547-0.956 1.487-1.487 0.94-0.547 2.169-0.547 1.213 0 2.153 0.547 0.94 0.531 1.472 1.487 0.547 0.94 0.547 2.184 0 1.229-0.532 2.184-0.531 0.94-1.471 1.487-0.94 0.532-2.169 0.532zM67.197 10.695q0.788 0 1.395-0.364c0.402-0.242 0.722-0.582 0.935-0.988l0.007-0.014c0.22-0.408 0.349-0.892 0.349-1.407 0-0.023-0-0.046-0.001-0.068l0 0.003c0-0.019 0.001-0.041 0.001-0.064 0-0.515-0.129-0.999-0.357-1.423l0.008 0.016c-0.215-0.427-0.537-0.772-0.93-1.011l-0.011-0.006c-0.385-0.229-0.85-0.364-1.346-0.364-0.017 0-0.034 0-0.052 0l0.003-0q-0.789 0-1.396 0.364c-0.407 0.248-0.732 0.593-0.949 1.003l-0.007 0.014c-0.22 0.408-0.349 0.892-0.349 1.407 0 0.022 0 0.045 0.001 0.067l-0-0.003q0 0.835 0.348 1.472 0.351 0.637 0.956 1 0.605 0.365 1.396 0.365zM57.867 12.151q-1.229 0-2.307-0.456c-0.726-0.324-1.345-0.758-1.866-1.288l-0.001-0.001c-0.515-0.547-0.934-1.191-1.227-1.9l-0.015-0.042c-0.279-0.691-0.44-1.493-0.44-2.333 0-0.022 0-0.044 0-0.067l-0 0.003q0-1.275 0.44-2.367c0.307-0.746 0.727-1.385 1.246-1.929l-0.002 0.002c0.519-0.54 1.138-0.979 1.828-1.289l0.037-0.015c0.662-0.298 1.435-0.471 2.248-0.471 0.021 0 0.041 0 0.062 0l-0.003-0q1.167 0 2.001 0.304 0.851 0.303 1.699 1 0.12 0.092 0.183 0.197 0.075 0.092 0.091 0.197c0.020 0.066 0.031 0.141 0.031 0.22 0 0.003 0 0.005-0 0.008v-0c0 0.003 0 0.006 0 0.010 0 0.189-0.082 0.359-0.213 0.477l-0.001 0.001c-0.128 0.12-0.296 0.198-0.483 0.213l-0.003 0c-0.007 0-0.014 0-0.022 0-0.206 0-0.394-0.075-0.539-0.2l0.001 0.001c-0.335-0.297-0.721-0.546-1.141-0.732l-0.028-0.011q-0.591-0.259-1.577-0.259-0.893 0-1.684 0.364c-0.543 0.254-1.006 0.591-1.393 0.999l-0.002 0.002q-0.592 0.637-0.925 1.487c-0.211 0.521-0.333 1.125-0.333 1.758 0 0.012 0 0.023 0 0.035v-0.002q0 0.971 0.333 1.82 0.333 0.835 0.925 1.471 0.607 0.639 1.395 1.001 0.791 0.349 1.684 0.349 0.773 0 1.456-0.257c0.51-0.205 0.951-0.455 1.351-0.755l-0.015 0.011c0.128-0.105 0.293-0.169 0.473-0.169 0.020 0 0.040 0.001 0.060 0.002l-0.003-0q0.272 0.015 0.455 0.213 0.183 0.181 0.183 0.515c-0 0.11-0.023 0.214-0.063 0.309l0.002-0.005c-0.048 0.099-0.109 0.184-0.181 0.257l0-0q-0.82 0.653-1.76 0.987-0.925 0.333-1.957 0.333z"></path>
</svg>
<svg id="icon-down"  width="32" height="32" viewBox="0 0 52 32">
    <path d="M26.468 30.53c-0.512 0-0.995-0.095-1.448-0.283s-0.89-0.492-1.307-0.91l-22.601-22.601c-0.777-0.777-1.147-1.705-1.109-2.785s0.446-2.008 1.223-2.785c0.777-0.777 1.706-1.166 2.785-1.166s2.008 0.389 2.785 1.166l19.672 19.786 19.786-19.786c0.777-0.777 1.686-1.147 2.728-1.109s1.951 0.446 2.728 1.223 1.166 1.706 1.166 2.785c0 1.080-0.389 2.008-1.166 2.785l-22.487 22.487c-0.418 0.418-0.853 0.721-1.307 0.91s-0.936 0.283-1.448 0.283z"></path>
</svg>  

<svg id="icon-Icon-up" width="32" height="32" viewBox="0 0 32 32" x="288" y="0">
<path stroke-linejoin="miter" stroke-linecap="butt" stroke-miterlimit="4" stroke-width="1" stroke="#000" fill="#000" d="M8.884 20.53c-0.045 0.045-0.108 0.073-0.177 0.073s-0.132-0.028-0.177-0.073v0l-0.353-0.353c-0.045-0.045-0.073-0.108-0.073-0.177s0.028-0.132 0.073-0.177v0l7.646-7.646c0.045-0.045 0.108-0.073 0.177-0.073s0.132 0.028 0.177 0.073v0l7.646 7.646c0.045 0.045 0.073 0.108 0.073 0.177s-0.028 0.132-0.073 0.177v0l-0.353 0.353c-0.045 0.045-0.108 0.073-0.177 0.073s-0.132-0.028-0.177-0.073v0l-7.116-7.116z"></path>
</svg>
<svg id="icon-menu" width="32" height="32" viewBox="0 0 32 32" x="336" y="0">
<path d="M4.936 24.295c-0.008 0-0.017 0-0.026 0-0.307 0-0.584-0.126-0.782-0.329l-0-0c-0.202-0.203-0.327-0.482-0.327-0.791 0-0.010 0-0.020 0-0.031l-0 0.002q0-0.483 0.327-0.807c0.2-0.2 0.476-0.323 0.781-0.323 0.009 0 0.019 0 0.028 0l-0.001-0h22.128q0.48 0 0.813 0.329c0.204 0.201 0.331 0.48 0.331 0.789 0 0.008-0 0.016-0 0.024l0-0.001q0 0.493-0.332 0.813c-0.202 0.2-0.481 0.324-0.788 0.324-0.009 0-0.018-0-0.026-0l0.001 0zM4.936 17.135c-0.008 0-0.017 0-0.027 0-0.306 0-0.582-0.126-0.781-0.328l-0-0c-0.202-0.201-0.327-0.478-0.327-0.785 0-0.010 0-0.020 0-0.029l-0 0.001q0-0.483 0.327-0.805c0.2-0.2 0.477-0.324 0.783-0.324 0.009 0 0.018 0 0.027 0l-0.001-0h22.128q0.48 0 0.813 0.329c0.204 0.201 0.331 0.48 0.331 0.789 0 0.008-0 0.017-0 0.025l0-0.001c0 0.003 0 0.006 0 0.010 0 0.619-0.501 1.12-1.12 1.12-0.008 0-0.017-0-0.025-0l0.001 0zM4.936 9.984c-0.008 0-0.017 0-0.026 0-0.307 0-0.584-0.126-0.782-0.329l-0-0c-0.202-0.203-0.327-0.482-0.327-0.791 0-0.010 0-0.020 0-0.031l-0 0.002q0-0.483 0.327-0.807c0.2-0.2 0.476-0.323 0.781-0.323 0.009 0 0.019 0 0.028 0l-0.001-0h22.128q0.48 0 0.813 0.329c0.204 0.201 0.331 0.48 0.331 0.789 0 0.008-0 0.016-0 0.024l0-0.001q0 0.492-0.332 0.813c-0.202 0.2-0.481 0.324-0.788 0.324-0.009 0-0.018-0-0.026-0l0.001 0z"></path>
</svg>
<svg id="icon-arrow_forward" width="32" height="32" viewBox="0 0 32 32" x="384" y="0">
<path d="M22.54 17.136h-16.271c-0.010 0-0.022 0.001-0.034 0.001-0.608 0-1.101-0.493-1.101-1.101 0-0.012 0-0.025 0.001-0.037l-0 0.002c-0-0.011-0.001-0.023-0.001-0.035 0-0.608 0.493-1.101 1.101-1.101 0.012 0 0.024 0 0.036 0.001l-0.002-0h16.271l-7.336-7.335c-0.212-0.202-0.344-0.486-0.344-0.801v-0c-0-0.006-0-0.013-0-0.020 0-0.308 0.129-0.586 0.336-0.783l0-0c0.204-0.209 0.488-0.338 0.802-0.338 0.316 0 0.602 0.131 0.806 0.342l9.267 9.267c0.214 0.199 0.347 0.481 0.347 0.795 0 0.004-0 0.007-0 0.011v-0.001c0 0.005 0 0.010 0 0.016 0 0.311-0.133 0.591-0.346 0.786l-0.001 0.001-9.275 9.267c-0.203 0.213-0.489 0.345-0.805 0.347h-0c-0.002 0-0.003 0-0.005 0-0.313 0-0.594-0.134-0.789-0.349l-0.001-0.001c-0.209-0.199-0.339-0.48-0.339-0.791 0-0.001 0-0.003 0-0.004v0q0-0.453 0.339-0.795z"></path>
</svg>
<svg id="icon-arrow_outward" width="32" height="32" viewBox="0 0 32 32" x="432" y="0">
<path d="M21.72 10.4l-12.795 12.804c-0.202 0.209-0.484 0.339-0.797 0.339-0.001 0-0.002 0-0.003 0h0c-0.001 0-0.002 0-0.004 0-0.311 0-0.591-0.133-0.786-0.346l-0.001-0.001c-0.213-0.201-0.345-0.485-0.347-0.8v-0q0-0.452 0.347-0.8l12.795-12.793h-11.267c-0.008 0-0.017 0-0.027 0-0.308 0-0.587-0.126-0.788-0.33l-0-0c-0.203-0.201-0.328-0.479-0.328-0.787 0-0.009 0-0.019 0-0.028l-0 0.001q0-0.483 0.328-0.805c0.202-0.2 0.481-0.324 0.788-0.324 0.010 0 0.020 0 0.029 0l-0.001-0h14q0.48 0 0.808 0.328c0.202 0.199 0.327 0.475 0.327 0.78 0 0.010-0 0.020-0 0.030l0-0.001v14q0 0.48-0.328 0.808c-0.201 0.203-0.479 0.328-0.787 0.328-0.009 0-0.019-0-0.028-0l0.001 0c-0.010 0-0.021 0-0.032 0-0.306 0-0.583-0.126-0.781-0.328l-0-0c-0.2-0.2-0.324-0.477-0.324-0.783 0-0.009 0-0.018 0-0.027l-0 0.001z"></path>
</svg>
<svg id="icon-close" width="32" height="32" viewBox="0 0 32 32" x="480" y="0">
<path fill="#fff" stroke-linejoin="miter" stroke-linecap="butt" stroke-miterlimit="4" stroke-width="1.3333" stroke="#000" d="M23.467 7.9c0.219 0 0.355 0.064 0.461 0.172 0.108 0.108 0.175 0.258 0.175 0.423 0 0.013-0 0.027-0.001 0.040l0-0.002c0.001 0.011 0.001 0.025 0.001 0.038 0 0.165-0.067 0.315-0.175 0.423l-7.005 7.005 7.005 7.005c0.107 0.107 0.173 0.243 0.173 0.461 0.001 0.011 0.001 0.025 0.001 0.038 0 0.165-0.067 0.315-0.175 0.423l0-0c-0.108 0.108-0.258 0.175-0.423 0.175-0.013 0-0.027-0-0.040-0.001l0.002 0c-0.012 0.001-0.026 0.001-0.040 0.001-0.165 0-0.315-0.067-0.423-0.175l-7.004-7.004-7.005 7.005c-0.108 0.106-0.257 0.172-0.421 0.172-0.015 0-0.029-0.001-0.044-0.002l0.002 0c-0.012 0.001-0.026 0.001-0.040 0.001-0.164 0-0.312-0.066-0.421-0.172l0 0c-0.108-0.108-0.175-0.258-0.175-0.423 0-0.014 0-0.028 0.001-0.041l-0 0.002c0-0.219 0.067-0.356 0.173-0.463l7.004-7.004-0.472-0.471-6.533-6.533c-0.106-0.108-0.172-0.257-0.172-0.421 0-0.015 0.001-0.029 0.002-0.044l-0 0.002c-0.001-0.012-0.001-0.026-0.001-0.040 0-0.164 0.066-0.313 0.173-0.422l-0 0c0.108-0.107 0.257-0.173 0.422-0.173 0.013 0 0.027 0 0.040 0.001l-0.002-0c0.22 0 0.356 0.064 0.463 0.172l7.005 7.004 7.004-7.004c0.108-0.107 0.257-0.173 0.422-0.173 0.014 0 0.029 0 0.043 0.002l-0.002-0z"></path>
</svg>
<svg id="icon-Facebook" width="32" height="32" viewBox="0 0 32 32" x="528" y="0">
<path d="M29.333 16.405c0-7.409-5.969-13.415-13.333-13.415s-13.333 6.005-13.333 13.413c0 6.697 4.876 12.247 11.251 13.253v-9.373h-3.387v-3.88h3.387v-2.955c0-3.361 1.989-5.219 5.036-5.219 1.459 0 2.984 0.261 2.984 0.261v3.301h-1.68c-1.657 0-2.173 1.035-2.173 2.096v2.516h3.697l-0.591 3.877h-3.107v9.373c6.373-1.005 11.249-6.555 11.249-13.251z"></path>
</svg>
<svg id="icon-Instagram" width="32" height="32" viewBox="0 0 32 32" x="576" y="0">
<path d="M15.999 6.16c3.205 0 3.585 0.016 4.845 0.072 1.173 0.052 1.804 0.248 2.227 0.413 0.557 0.215 0.96 0.477 1.377 0.893 0.423 0.423 0.68 0.821 0.9 1.379 0.164 0.423 0.36 1.060 0.413 2.227 0.056 1.267 0.069 1.645 0.069 4.847s-0.013 3.587-0.071 4.847c-0.051 1.173-0.248 1.804-0.412 2.227-0.203 0.54-0.508 1-0.894 1.377l-0.001 0.001c-0.423 0.423-0.821 0.68-1.379 0.9-0.421 0.164-1.059 0.36-2.227 0.413-1.265 0.056-1.644 0.069-4.845 0.069s-3.587-0.013-4.847-0.071c-1.173-0.051-1.805-0.248-2.227-0.412-0.54-0.203-1.001-0.508-1.378-0.895l-0.001-0.001c-0.389-0.377-0.695-0.837-0.891-1.352l-0.009-0.026c-0.164-0.421-0.36-1.059-0.413-2.227-0.055-1.265-0.069-1.644-0.069-4.847 0-3.2 0.013-3.584 0.071-4.845 0.052-1.173 0.248-1.805 0.413-2.227 0.215-0.559 0.477-0.96 0.893-1.379 0.378-0.389 0.838-0.696 1.353-0.891l0.026-0.009c0.423-0.164 1.060-0.36 2.227-0.413 1.261-0.055 1.64-0.069 4.847-0.069zM15.997 4.001c-3.257 0-3.665 0.015-4.945 0.071-1.275 0.057-2.151 0.263-2.911 0.559-0.833 0.318-1.542 0.79-2.126 1.386l-0.001 0.001c-0.596 0.584-1.068 1.292-1.373 2.084l-0.014 0.040c-0.296 0.764-0.503 1.635-0.56 2.909-0.052 1.284-0.068 1.692-0.068 4.949 0 3.259 0.013 3.665 0.071 4.945 0.056 1.275 0.263 2.152 0.557 2.911 0.318 0.833 0.79 1.542 1.386 2.126l0.001 0.001c0.584 0.595 1.293 1.065 2.084 1.369l0.040 0.014c0.764 0.296 1.636 0.503 2.911 0.559 1.28 0.056 1.687 0.071 4.944 0.071s3.667-0.013 4.947-0.071c1.273-0.056 2.151-0.263 2.909-0.559 0.831-0.318 1.539-0.788 2.122-1.382l0.001-0.001c0.665-0.667 1.079-1.335 1.383-2.123 0.296-0.764 0.501-1.635 0.559-2.911 0.056-1.28 0.071-1.687 0.071-4.944s-0.015-3.665-0.071-4.945c-0.057-1.275-0.263-2.151-0.559-2.911-0.305-0.838-0.774-1.551-1.372-2.132l-0.001-0.001c-0.584-0.594-1.292-1.064-2.082-1.368l-0.040-0.014c-0.764-0.296-1.635-0.503-2.911-0.559-1.284-0.061-1.691-0.076-4.948-0.076z"></path>
<path d="M15.999 9.836c-3.337 0.088-6.008 2.814-6.008 6.163s2.671 6.076 6 6.163l0.008 0c3.365-0.051 6.073-2.791 6.073-6.163s-2.708-6.112-6.069-6.163l-0.005-0zM15.999 19.996c-2.208 0-3.997-1.79-3.997-3.997s1.79-3.997 3.997-3.997v0c2.208 0 3.998 1.79 3.998 3.998s-1.79 3.998-3.998 3.998v0zM23.843 9.592c0.001 0.018 0.001 0.040 0.001 0.062 0 0.795-0.645 1.44-1.44 1.44s-1.44-0.645-1.44-1.44c0-0.022 0-0.043 0.001-0.065l-0 0.003c0.034-0.768 0.665-1.378 1.439-1.378s1.405 0.61 1.439 1.375l0 0.003z"></path>
</svg>
<svg id="icon-Youtube" width="32" height="32" viewBox="0 0 32 32" x="624" y="0">
<path d="M28.791 9.604c-0.315-1.149-1.201-2.037-2.326-2.349l-0.023-0.006c-2.088-0.573-10.441-0.583-10.441-0.583s-8.352-0.009-10.441 0.539c-1.146 0.334-2.029 1.222-2.349 2.347l-0.006 0.024c-0.551 2.088-0.556 6.419-0.556 6.419s-0.005 4.352 0.541 6.419c0.307 1.143 1.207 2.045 2.351 2.353 2.109 0.573 10.44 0.583 10.44 0.583s8.353 0.009 10.441-0.537c1.147-0.32 2.033-1.204 2.35-2.327l0.006-0.024c0.552-2.087 0.556-6.416 0.556-6.416s0.027-4.353-0.543-6.441zM13.328 20.007l0.007-8 6.943 4.007z"></path>
</svg>
</svg>
